<svg width="13" height="15" viewBox="0 0 13 15" fill="none" xmlns="http://www.w3.org/2000/svg">
<path d="M3.44632 14.2471H0.0871582V0.518934H3.19801L3.47347 2.29747C3.89593 1.612 4.49253 1.07473 5.26328 0.685666C6.05258 0.2966 6.90611 0.102066 7.82387 0.102066C9.53092 0.102066 10.8155 0.611534 11.6783 1.63053C12.5597 2.64947 13 4.03893 13 5.799V14.2471H9.64084V6.60487C9.64084 5.45627 9.38392 4.604 8.87009 4.0482C8.35625 3.47387 7.65833 3.18673 6.77765 3.18673C5.73143 3.18673 4.91432 3.5202 4.32698 4.1872C3.73965 4.85413 3.44632 5.7434 3.44632 6.855V14.2471Z" fill="#F4F5F6"/>
</svg>
