<svg width="16" height="21" viewBox="0 0 16 21" fill="none" xmlns="http://www.w3.org/2000/svg">
<path d="M0.954391 7.07733C0.954391 5.7434 1.22058 4.55773 1.75296 3.5202C2.30322 2.4642 3.06536 1.63053 4.03808 1.01913C5.0108 0.407733 6.13979 0.102066 7.42438 0.102066C8.58118 0.102066 9.57243 0.361466 10.3981 0.880199C11.2239 1.3804 11.8026 2.0844 12.133 2.9922L11.7748 3.29787L12.0502 0.518934H15.1617V13.5523C15.1617 15.0715 14.8677 16.3869 14.2804 17.4985C13.7116 18.6286 12.8945 19.4901 11.8297 20.0829C10.7835 20.6943 9.51747 21 8.03025 21C6.08482 21 4.48769 20.472 3.23951 19.416C1.99134 18.36 1.257 16.9149 1.03716 15.0808H4.39631C4.50623 15.9701 4.87307 16.6648 5.49749 17.165C6.13978 17.6653 6.98404 17.9153 8.03025 17.9153C9.18705 17.9153 10.1048 17.5726 10.7835 16.8871C11.4814 16.2202 11.8297 15.3124 11.8297 14.1637V10.7456L12.2151 11.1069C11.8847 11.9776 11.2795 12.6723 10.3981 13.1911C9.51747 13.7098 8.49841 13.9692 7.34227 13.9692C6.05701 13.9692 4.93729 13.6728 3.98312 13.0799C3.02828 12.4871 2.28534 11.6719 1.75296 10.6344C1.22058 9.59693 0.954391 8.4112 0.954391 7.07733ZM4.34069 6.99393C4.34069 7.77207 4.48769 8.4668 4.78169 9.0782C5.09357 9.671 5.52464 10.1435 6.07555 10.4955C6.62647 10.8475 7.26877 11.0235 8.00311 11.0235C8.77386 11.0235 9.4347 10.8567 9.98496 10.5233C10.5544 10.1713 10.9855 9.6988 11.2795 9.106C11.5914 8.4946 11.7476 7.7906 11.7476 6.99393C11.7476 6.19733 11.6006 5.5118 11.3066 4.93747C11.0133 4.34467 10.5816 3.88147 10.0128 3.548C9.46185 3.21453 8.7924 3.0478 8.00311 3.0478C7.25023 3.0478 6.59866 3.2238 6.04774 3.5758C5.49749 3.90927 5.07503 4.37247 4.78169 4.96527C4.48769 5.55813 4.34069 6.23433 4.34069 6.99393Z" fill="#F4F5F6"/>
</svg>
